<svg xmlns="http://www.w3.org/2000/svg" id="svg4914" width="228.997" height="228.997" xmlns:sodipodi="http://sodipodi.sourceforge.net/DTD/sodipodi-0.dtd" sodipodi:docname="New document 14" xmlns:inkscape="http://www.inkscape.org/namespaces/inkscape" inkscape:version="0.48.2 r9819" version="1.1">
  <defs id="defs4916">
    <linearGradient id="linearGradient4162" gradientUnits="userSpaceOnUse" x1="-418.279" y1="351.791" x2="-418.279" y2="518.347" xmlns:xlink="http://www.w3.org/1999/xlink" xlink:href="#linearGradient19265" inkscape:collect="always" />
    <linearGradient id="linearGradient19265" inkscape:collect="always">
      <stop id="stop19267" style="stop-color: rgb(244, 183, 43); stop-opacity: 1;" offset="0" />
      <stop id="stop19269" style="stop-color: rgb(220, 157, 17); stop-opacity: 1;" offset="1" />
    </linearGradient>
    <radialGradient id="radialGradient4164" gradientUnits="userSpaceOnUse" cx="-643.5" cy="707.25" r="43.5651" fx="-643.5" fy="707.25" xmlns:xlink="http://www.w3.org/1999/xlink" xlink:href="#linearGradient18852" inkscape:collect="always" />
    <linearGradient id="linearGradient18852" inkscape:collect="always">
      <stop id="stop18854" style="stop-color: rgb(255, 255, 255); stop-opacity: 1;" offset="0" />
      <stop id="stop18856" style="stop-color: rgb(255, 255, 255); stop-opacity: 0;" offset="1" />
    </linearGradient>
    <clipPath id="clipPath15386" clipPathUnits="userSpaceOnUse">
      <path id="path15388" style="color: rgb(0, 0, 0); overflow: visible; display: inline; visibility: visible; fill: #204a87; fill-opacity: 1; fill-rule: nonzero; marker-end: none; marker-mid: none; marker-start: none; stroke: none; stroke-width: 1; enable-background: accumulate;" transform="matrix(0.660077 0 0 0.660077 -442.837 451.8)" d="m -238 387 a 66 66 0 1 1 -132 0 a 66 66 0 1 1 132 0 Z" sodipodi:ry="66" sodipodi:rx="66" sodipodi:cy="387" sodipodi:cx="-304" sodipodi:type="arc" />
    </clipPath>
    <linearGradient id="linearGradient4166" gradientUnits="userSpaceOnUse" gradientTransform="translate(400)" x1="-637.25" y1="772.362" x2="-637.25" y2="841.478" xmlns:xlink="http://www.w3.org/1999/xlink" xlink:href="#linearGradient18788" inkscape:collect="always" />
    <linearGradient id="linearGradient18788" inkscape:collect="always">
      <stop id="stop18790" style="stop-color: rgb(0, 0, 0); stop-opacity: 0.18593;" offset="0" />
      <stop id="stop18792" style="stop-color: rgb(0, 0, 0); stop-opacity: 0.00502513;" offset="1" />
    </linearGradient>
    <path id="path15140" style="color: rgb(0, 0, 0); overflow: visible; display: inline; visibility: visible; fill: none; marker-end: none; marker-mid: none; marker-start: none; stroke: none; stroke-width: 1.05246; enable-background: accumulate;" transform="matrix(0.950525 0 0 0.94978 -349.539 187.787)" d="M -356.823 372.846 A 54.6863 54.6863 0 1 1 -358.686 387 L -304 387 Z" sodipodi:ry="54.686291" sodipodi:rx="54.686291" sodipodi:cy="387" sodipodi:cx="-304" sodipodi:type="arc" sodipodi:end="9.424778" sodipodi:start="3.403392" />
    <path id="path15286" style="color: rgb(0, 0, 0); overflow: visible; display: inline; visibility: visible; fill: none; marker-end: none; marker-mid: none; marker-start: none; stroke: none; stroke-width: 0.19282; enable-background: accumulate;" transform="matrix(5.33545 0 0 5.04108 983.404 -1021.55)" d="m -315.077 321.936 a 66 66 0 0 1 22.0789 -0.0126" sodipodi:ry="66" sodipodi:rx="66" sodipodi:cy="387" sodipodi:cx="-304" sodipodi:type="arc" sodipodi:end="4.8798731" sodipodi:start="4.5437638" sodipodi:open="true" />
  </defs>
  <sodipodi:namedview inkscape:cy="64.705663" inkscape:cx="286.39296" inkscape:window-maximized="0" inkscape:window-y="327" inkscape:window-x="880" inkscape:window-height="922" inkscape:window-width="1680" fit-margin-bottom="30" fit-margin-right="30" fit-margin-left="30" fit-margin-top="30" showgrid="false" inkscape:current-layer="layer1" inkscape:document-units="px" inkscape:zoom="2" inkscape:pageshadow="2" inkscape:pageopacity="0.0" borderopacity="1.0" bordercolor="#666666" pagecolor="#ffffff" id="base" />
  <metadata id="metadata4919">
    <rdf:RDF xmlns:rdf="http://www.w3.org/1999/02/22-rdf-syntax-ns#">
      <cc:Work xmlns:cc="http://creativecommons.org/ns#" rdf:about="">
        <dc:format xmlns:dc="http://purl.org/dc/elements/1.1/">image/svg+xml</dc:format>
        <dc:type xmlns:dc="http://purl.org/dc/elements/1.1/" rdf:resource="http://purl.org/dc/dcmitype/StillImage" />
        <dc:title xmlns:dc="http://purl.org/dc/elements/1.1/" />
      </cc:Work>
    </rdf:RDF>
  </metadata>
  <g id="layer1" transform="translate(-211.216 -383.578)" inkscape:groupmode="layer" inkscape:label="Layer 1">
    <g id="g3608" transform="translate(564.208 -267.275)" inkscape:export-ydpi="319.53" inkscape:export-xdpi="319.53" inkscape:export-filename="/tmp/certified-mobile-developer.png">
      <path id="path3610" style="color: rgb(0, 0, 0); overflow: visible; display: inline; visibility: visible; fill: url(#linearGradient4162); fill-opacity: 1; fill-rule: nonzero; marker-end: none; marker-mid: none; marker-start: none; stroke: none; stroke-width: 1; enable-background: accumulate;" transform="matrix(0.959279 0 0 0.959279 173.997 346.147)" d="m -452.847 351.733 l 9.21601 2.70412 l 7.85769 -5.523 l 8.51137 4.45012 l 8.7842 -3.88392 l 7.47965 6.02509 l 9.37313 -2.09557 l 6.16049 7.36853 l 9.60185 -0.22671 l 4.6046 8.4288 l 9.46158 1.65088 l 2.87174 9.16516 l 8.95771 3.46502 l 1.02853 9.5493 l 8.10959 5.146 l -0.85421 9.56647 l 6.94984 6.62922 l -2.70412 9.21601 l 5.523 7.85769 l -4.45012 8.51137 l 3.88392 8.7842 l -6.02509 7.47965 l 2.09557 9.37313 l -7.36853 6.16049 l 0.22671 9.60185 l -8.4288 4.6046 l -1.65088 9.46158 l -9.16516 2.87174 l -3.46502 8.95771 l -9.5493 1.02853 l -5.146 8.10959 l -9.56647 -0.85421 l -6.62922 6.94984 l -9.21601 -2.70412 l -7.85769 5.523 l -8.51137 -4.45012 l -8.7842 3.88392 l -7.47965 -6.02509 l -9.37313 2.09557 l -6.16049 -7.36853 l -9.60185 0.22671 l -4.6046 -8.4288 l -9.46158 -1.65088 l -2.87174 -9.16516 l -8.95771 -3.46502 l -1.02853 -9.5493 l -8.10959 -5.146 l 0.85421 -9.56647 l -6.94984 -6.62922 l 2.70412 -9.21601 l -5.523 -7.85769 l 4.45012 -8.51137 l -3.88392 -8.7842 l 6.02509 -7.47965 l -2.09557 -9.37313 l 7.36853 -6.16049 l -0.22671 -9.60185 l 8.4288 -4.6046 l 1.65088 -9.46158 l 9.16516 -2.87174 l 3.46502 -8.95771 l 9.5493 -1.02853 l 5.146 -8.10959 l 9.56647 0.85421 Z" sodipodi:cy="437" sodipodi:cx="-430" sodipodi:type="star" inkscape:randomized="0" inkscape:rounded="0" inkscape:flatsided="false" sodipodi:arg2="-1.7344209" sodipodi:arg1="-1.8325957" sodipodi:r2="83.680206" sodipodi:r1="88.274521" sodipodi:sides="32" />
      <path id="path3612" style="color: rgb(0, 0, 0); overflow: visible; display: inline; visibility: visible; fill: #252525; fill-opacity: 1; fill-rule: nonzero; marker-end: none; marker-mid: none; marker-start: none; stroke: none; stroke-width: 1; enable-background: accumulate;" transform="matrix(1.17424 0 0 1.17424 118.476 310.92)" d="m -238 387 c 0 36.4508 -29.5492 66 -66 66 c -36.4508 0 -66 -29.5492 -66 -66 c 0 -36.4508 29.5492 -66 66 -66 c 36.4508 0 66 29.5492 66 66 Z" sodipodi:ry="66" sodipodi:rx="66" sodipodi:cy="387" sodipodi:cx="-304" sodipodi:type="arc" />
      <path id="path3614" style="color: rgb(0, 0, 0); overflow: visible; display: inline; visibility: visible; opacity: 0.165049; fill: url(#radialGradient4164); fill-opacity: 1; fill-rule: nonzero; marker-end: none; marker-mid: none; marker-start: none; stroke: none; stroke-width: 3; enable-background: accumulate;" clip-path="url(&quot;#clipPath15386&quot;)" transform="matrix(1.77895 0 0 1.77895 906.26 -492.81)" d="m -682.018 640.535 l 33.7706 56.2373 l -20.015 -62.4699 l 22.1503 61.7451 l -7.44311 -65.1743 l 9.67886 64.88 l 5.41479 -65.3741 l -3.16457 65.5216 l 18.0646 -63.0616 l -15.8864 63.6452 l 30.0202 -58.3256 l -27.9977 59.323 l 40.8221 -51.3483 l -39.0331 52.7211 l 50.0553 -42.3976 l -48.5684 44.0931 l 57.3649 -31.8177 l -56.2373 33.7706 l 62.4699 -20.015 l -61.7451 22.1503 l 65.1743 -7.44311 l -64.88 9.67886 l 65.3741 5.41479 l -65.5216 -3.16457 l 63.0616 18.0646 l -63.6452 -15.8864 l 58.3256 30.0202 l -59.323 -27.9977 l 51.3483 40.8221 l -52.7211 -39.0331 l 42.3976 50.0553 l -44.0931 -48.5684 l 31.8177 57.3649 l -33.7706 -56.2373 l 20.015 62.4699 l -22.1503 -61.7451 l 7.44311 65.1743 l -9.67886 -64.88 l -5.41479 65.3741 l 3.16457 -65.5216 l -18.0646 63.0616 l 15.8864 -63.6452 l -30.0202 58.3256 l 27.9977 -59.323 l -40.8221 51.3483 l 39.0331 -52.7211 l -50.0553 42.3976 l 48.5684 -44.0931 l -57.3649 31.8177 l 56.2373 -33.7706 l -62.4699 20.015 l 61.7451 -22.1503 l -65.1743 7.44311 l 64.88 -9.67886 l -65.3741 -5.41479 l 65.5216 3.16457 l -63.0616 -18.0646 l 63.6452 15.8864 l -58.3256 -30.0202 l 59.323 27.9977 l -51.3483 -40.8221 l 52.7211 39.0331 l -42.3976 -50.0553 l 44.0931 48.5684 Z" sodipodi:cy="707.25" sodipodi:cx="-643.5" sodipodi:type="star" inkscape:randomized="0" inkscape:rounded="0" inkscape:flatsided="false" sodipodi:arg2="-1.9962203" sodipodi:arg1="-2.0943951" sodipodi:r2="11.503328" sodipodi:r1="77.036194" sodipodi:sides="32" />
      <g id="g3616" style="fill: none; stroke: #000000; stroke-dasharray: none; stroke-miterlimit: 4; stroke-opacity: 0.180905; stroke-width: 4.49071;" transform="matrix(0.671991 0 0 0.664125 132.111 430.986)">
        <g id="g3618" style="fill: none; stroke: #000000; stroke-dasharray: none; stroke-miterlimit: 4; stroke-opacity: 0.180905; stroke-width: 1.52794;" transform="matrix(2.93907 0 0 -2.93907 -581.021 461.683)">
          <path id="path3620" style="fill: none; stroke: #000000; stroke-dasharray: none; stroke-miterlimit: 4; stroke-opacity: 0.180905; stroke-width: 1.52794;" d="M 0 0 L 6.025 -10.438 L 0 -20.877 l 4.018 0 l 6.026 10.439 L 4.018 0 L 0 0 Z" inkscape:connector-curvature="0" />
        </g>
        <g id="g3622" style="fill: none; stroke: #000000; stroke-dasharray: none; stroke-miterlimit: 4; stroke-opacity: 0.180905; stroke-width: 1.52794;" transform="matrix(2.93907 0 0 -2.93907 -521.979 461.683)">
          <path id="path3624" style="fill: none; stroke: #000000; stroke-dasharray: none; stroke-miterlimit: 4; stroke-opacity: 0.180905; stroke-width: 1.52794;" d="m 0 0 l -4.018 0 l -6.026 -10.438 l 6.026 -10.439 l 4.018 0 l -6.025 10.439 L 0 0 Z" inkscape:connector-curvature="0" />
        </g>
      </g>
      <path id="path3626" style="color: rgb(0, 0, 0); overflow: visible; display: inline; visibility: visible; fill: url(#linearGradient4166); fill-opacity: 1; marker-end: none; marker-mid: none; marker-start: none; stroke: none; stroke-width: 0.621908; enable-background: accumulate;" d="m -238.5 771.237 c -26.9802 0 -51.5875 10.0722 -70.3125 26.6563 c 12.3008 26.5392 39.1372 44.9688 70.3125 44.9688 c 31.1768 0 58.0437 -18.4275 70.3438 -44.9688 c -18.725 -16.5841 -43.3636 -26.6563 -70.3438 -26.6563 Z" inkscape:connector-curvature="0" />
      <path id="path3628" style="color: rgb(0, 0, 0); overflow: visible; display: inline; visibility: visible; fill: #ffffff; fill-opacity: 0.0954774; fill-rule: nonzero; marker-end: none; marker-mid: none; marker-start: none; stroke: none; stroke-width: 1; enable-background: accumulate;" d="m -238.5 776.112 c -17.6231 0 -34.0989 4.87984 -48.1563 13.375 c 14.7304 -6.51182 31.015 -10.125 48.1563 -10.125 c 17.1413 0 33.4571 3.61318 48.1875 10.125 c -14.0573 -8.49516 -30.5644 -13.375 -48.1875 -13.375 Z" inkscape:connector-curvature="0" />
      <g id="g3630" style="fill: #ffffff; fill-opacity: 1;" transform="matrix(0.671991 0 0 0.664125 132.109 428.986)">
        <g id="g3632" style="fill: #ffffff; fill-opacity: 1;" transform="matrix(2.93907 0 0 -2.93907 -581.021 461.683)">
          <path id="path3634" style="fill: #ffffff; fill-opacity: 1; fill-rule: nonzero; stroke: none;" d="M 0 0 L 6.025 -10.438 L 0 -20.877 l 4.018 0 l 6.026 10.439 L 4.018 0 L 0 0 Z" inkscape:connector-curvature="0" />
        </g>
        <g id="g3636" style="fill: #ffffff; fill-opacity: 1;" transform="matrix(2.93907 0 0 -2.93907 -521.979 461.683)">
          <path id="path3638" style="fill: #ffffff; fill-opacity: 1; fill-rule: nonzero; stroke: none;" d="m 0 0 l -4.018 0 l -6.026 -10.438 l 6.026 -10.439 l 4.018 0 l -6.025 10.439 L 0 0 Z" inkscape:connector-curvature="0" />
        </g>
      </g>
      <g id="text3640" style="font: 20.2px/125% Helvetica Neue; letter-spacing: 0px; word-spacing: 0px; -ms-writing-mode: lr-tb; font-stretch: normal; fill: #ffffff; fill-opacity: 1; stroke: none; text-anchor: start; -inkscape-font-specification: Helvetica Neue;" transform="translate(400 210)">
        <path id="path5043" style="line-height: 125%; letter-spacing: 0.56px; font-family: Source Sans Pro; font-size: 15px; font-weight: 600; fill: #ffffff; -inkscape-font-specification: Source Sans Pro Semi-Bold;" d="m -692.642 537.394 l -5.35203 0.88197 l 0.64287 -1.82509 l 2.41525 -0.31018 c 0.25349 -0.0273 0.51169 -0.053 0.7746 -0.077 c 0.26624 -0.0334 0.56103 -0.0727 0.88439 -0.11787 l 0.0199 -0.0566 c -0.23366 -0.20953 -0.44706 -0.40132 -0.64021 -0.57538 c -0.18981 -0.18349 -0.37492 -0.36531 -0.55531 -0.54549 l -1.70759 -1.69882 l 0.61297 -1.74019 l 3.68851 4.06644 l 5.62405 -0.97699 l -0.64287 1.82508 l -2.57747 0.36438 c -0.28842 0.0362 -0.57213 0.0741 -0.85112 0.11368 c -0.28509 0.0268 -0.59238 0.0564 -0.92185 0.0888 l -0.0199 0.0566 c 0.23977 0.22229 0.46234 0.43322 0.6677 0.63278 c 0.19593 0.19625 0.39658 0.39415 0.60194 0.59371 l 1.79505 1.85686 l -0.61297 1.74019 l -3.84591 -4.29682" />
        <path id="path5045" style="line-height: 125%; letter-spacing: 0.56px; font-family: Source Sans Pro; font-size: 15px; font-weight: 600; fill: #ffffff; -inkscape-font-specification: Source Sans Pro Semi-Bold;" d="m -686.851 527.068 l -1.21646 -0.28149 c -0.52738 -0.12154 -1.06787 -0.25037 -1.62147 -0.38649 c -0.55359 -0.13611 -1.10039 -0.27417 -1.6404 -0.41418 l -0.0292 0.0525 c 0.4127 0.38959 0.8254 0.77918 1.2381 1.16876 c 0.40396 0.38474 0.79432 0.77335 1.17108 1.16584 l 0.88122 0.88457 l 1.21708 -2.18946 m 1.38255 0.32232 l -1.59605 2.87121 l 1.94888 1.9586 l -0.86726 1.56015 l -7.01469 -7.57194 l 0.99116 -1.78303 l 10.1266 1.97374 l -0.89641 1.61259 l -2.69225 -0.62132" />
        <path id="path5047" style="line-height: 125%; letter-spacing: 0.56px; font-family: Source Sans Pro; font-size: 15px; font-weight: 600; fill: #ffffff; -inkscape-font-specification: Source Sans Pro Semi-Bold;" d="m -688.35 518.586 l 1.23695 -1.44879 l 4.82259 1.79009 l 1.83338 0.71719 l 0.039 -0.0456 l -0.99576 -1.69826 l -2.55323 -4.4481 l 1.24669 -1.46019 l 7.46068 6.36979 l -1.06163 1.24345 l -3.41093 -2.91218 c -0.17492 -0.14934 -0.3618 -0.31547 -0.56065 -0.4984 c -0.19235 -0.19051 -0.3847 -0.38104 -0.57706 -0.57158 c -0.19996 -0.19701 -0.38906 -0.39133 -0.56732 -0.58298 c -0.18586 -0.19812 -0.35975 -0.37946 -0.52169 -0.54403 l -0.039 0.0456 l 1.18355 2.05584 l 2.28752 4.18178 l -0.5162 0.60461 l -4.4887 -1.60362 l -2.20623 -0.85802 l -0.039 0.0456 c 0.18791 0.13414 0.39103 0.28126 0.60935 0.44136 c 0.21722 0.14601 0.43879 0.30231 0.66472 0.4689 c 0.21833 0.16011 0.43341 0.32402 0.64524 0.49173 c 0.21832 0.16011 0.41495 0.31483 0.58986 0.46417 l 3.41093 2.91218 l -1.03241 1.20923 l -7.46069 -6.3698" />
        <path id="path5049" style="line-height: 125%; letter-spacing: 0.56px; font-family: Source Sans Pro; font-size: 15px; font-weight: 600; fill: #ffffff; -inkscape-font-specification: Source Sans Pro Semi-Bold;" d="m -672.185 510.629 l -1.01273 -0.73034 c -0.43924 -0.31617 -0.88775 -0.64414 -1.34553 -0.98391 c -0.45778 -0.33975 -0.90854 -0.67867 -1.35228 -1.01676 l -0.0472 0.0371 c 0.22976 0.51896 0.45952 1.03791 0.68928 1.55685 c 0.22359 0.51109 0.43313 1.0205 0.62863 1.52821 l 0.47021 1.15669 l 1.96959 -1.54782 m 1.15006 0.83228 l -2.58288 2.02977 l 1.03901 2.56022 l -1.40348 1.10293 l -3.5376 -9.69668 l 1.60398 -1.2605 l 8.57362 5.7391 l -1.45066 1.14 l -2.24199 -1.61484" />
        <path id="path5051" style="line-height: 125%; letter-spacing: 0.56px; font-family: Source Sans Pro; font-size: 15px; font-weight: 600; fill: #ffffff; -inkscape-font-specification: Source Sans Pro Semi-Bold;" d="m -666.759 505.632 l 1.21745 -0.64977 c 0.59991 -0.32017 0.98833 -0.68616 1.16527 -1.09798 c 0.17694 -0.41181 0.13357 -0.86474 -0.1301 -1.35879 c -0.26839 -0.50285 -0.60876 -0.76893 -1.02112 -0.79823 c -0.41236 -0.0293 -0.91849 0.11616 -1.5184 0.43632 l -1.21746 0.64977 l 1.50436 2.81868 m 5.63379 2.91012 l -3.67394 -2.39187 l -1.31009 0.69921 l 1.80805 3.38771 l -1.53506 0.81927 l -4.61899 -8.65454 l 2.91131 -1.55379 c 0.44993 -0.24012 0.89252 -0.41966 1.32778 -0.53862 c 0.43526 -0.11894 0.84819 -0.1523 1.2388 -0.10007 c 0.39471 0.0387 0.75858 0.17891 1.09159 0.42057 c 0.34183 0.23697 0.64223 0.59805 0.9012 1.08326 c 0.35313 0.66167 0.47919 1.28016 0.37819 1.85548 c -0.0922 0.57062 -0.35587 1.0854 -0.79102 1.54435 l 3.9925 2.51089 l -1.72032 0.91815" />
        <path id="path5053" style="line-height: 125%; letter-spacing: 0.56px; font-family: Source Sans Pro; font-size: 15px; font-weight: 600; fill: #ffffff; -inkscape-font-specification: Source Sans Pro Semi-Bold;" d="m -660.698 497.714 l 1.63215 -0.60307 l 3.40006 9.20194 l -1.63215 0.60307 l -3.40006 -9.20194" />
        <path id="path5055" style="line-height: 125%; letter-spacing: 0.56px; font-family: Source Sans Pro; font-size: 15px; font-weight: 600; fill: #ffffff; -inkscape-font-specification: Source Sans Pro Semi-Bold;" d="m -654.859 495.684 l 1.74625 -0.3699 l 4.1228 4.76916 l 1.42993 1.82837 l 0.0587 -0.0124 c -0.15461 -0.48856 -0.31646 -1.01137 -0.48556 -1.56842 c -0.17119 -0.56683 -0.31377 -1.11927 -0.42774 -1.65734 l -0.88279 -4.16752 l 1.61418 -0.34193 l 2.03291 9.59705 l -1.74625 0.3699 l -4.1228 -4.76916 l -1.42993 -1.82837 l -0.0587 0.0124 c 0.15667 0.49836 0.31853 1.02117 0.48556 1.56843 c 0.16704 0.54727 0.30754 1.08993 0.42152 1.62799 l 0.88901 4.19687 l -1.61418 0.34193 l -2.03291 -9.59705" />
        <path id="path5057" style="line-height: 125%; letter-spacing: 0.56px; font-family: Source Sans Pro; font-size: 15px; font-weight: 600; fill: #ffffff; -inkscape-font-specification: Source Sans Pro Semi-Bold;" d="m -639.28 498.415 c 0.0401 -0.79899 0.19071 -1.50734 0.45196 -2.12504 c 0.27174 -0.62717 0.62337 -1.15022 1.05488 -1.56915 c 0.43151 -0.41892 0.92768 -0.72946 1.48851 -0.93165 c 0.56082 -0.20217 1.15584 -0.28748 1.78505 -0.25595 c 0.59925 0.03 1.12732 0.18167 1.58422 0.45488 c 0.46687 0.27373 0.84686 0.58314 1.13995 0.92824 l -1.01286 1.03058 c -0.24717 -0.2627 -0.51206 -0.47122 -0.79468 -0.62557 c -0.27214 -0.16382 -0.59798 -0.25525 -0.97749 -0.27428 c -0.39951 -0.02 -0.7733 0.0464 -1.12138 0.19911 c -0.34759 0.14278 -0.65398 0.36272 -0.91918 0.65981 c -0.25472 0.28761 -0.46301 0.64763 -0.62486 1.08007 c -0.15187 0.43294 -0.24157 0.92407 -0.2691 1.47337 c -0.0561 1.1186 0.14456 2.00976 0.60191 2.67349 c 0.45784 0.65374 1.09625 1.00114 1.91522 1.04219 c 0.43944 0.022 0.82822 -0.0436 1.16632 -0.19686 c 0.33809 -0.15326 0.65472 -0.37769 0.9499 -0.67328 l 0.90548 1.11172 c -0.42254 0.4394 -0.89474 0.77118 -1.41661 0.99533 c -0.5114 0.21467 -1.08169 0.30623 -1.7109 0.27469 c -0.61922 -0.031 -1.19798 -0.17019 -1.73628 -0.41745 c -0.52831 -0.24676 -0.98145 -0.59488 -1.35941 -1.04437 c -0.37798 -0.44948 -0.66605 -0.99459 -0.86422 -1.63532 c -0.19817 -0.64072 -0.27698 -1.36557 -0.23643 -2.17456" />
        <path id="path5059" style="line-height: 125%; letter-spacing: 0.56px; font-family: Source Sans Pro; font-size: 15px; font-weight: 600; fill: #ffffff; -inkscape-font-specification: Source Sans Pro Semi-Bold;" d="m -627.745 494.479 l 5.7531 1.28565 l -0.32059 1.43461 l -4.05498 -0.90617 l -0.54632 2.4447 l 3.44014 0.76878 l -0.32059 1.43461 l -3.44015 -0.76877 l -0.63137 2.82531 l 4.20137 0.93888 l -0.3206 1.43462 l -5.89948 -1.31836 l 2.13947 -9.57386" />
        <path id="path5061" style="line-height: 125%; letter-spacing: 0.56px; font-family: Source Sans Pro; font-size: 15px; font-weight: 600; fill: #ffffff; -inkscape-font-specification: Source Sans Pro Semi-Bold;" d="m -617.99 501.97 l 1.27695 0.52326 c 0.62921 0.25784 1.15884 0.32357 1.58888 0.19719 c 0.43002 -0.12638 0.75121 -0.44866 0.96355 -0.96685 c 0.21612 -0.52743 0.20396 -0.95929 -0.0365 -1.29557 c -0.24046 -0.33628 -0.67529 -0.63334 -1.3045 -0.89118 l -1.27695 -0.52326 l -1.21146 2.95641 m 1.35188 6.19523 l -0.50103 -4.35521 l -1.37411 -0.56307 l -1.45603 3.55325 l -1.61007 -0.65976 l 3.7197 -9.07745 l 3.05357 1.25128 c 0.47191 0.19338 0.89248 0.41976 1.26171 0.67912 c 0.36922 0.25937 0.65828 0.55614 0.86718 0.89029 c 0.22193 0.32871 0.34604 0.69837 0.37231 1.10898 c 0.0355 0.41442 -0.051 0.87609 -0.25954 1.38502 c -0.28439 0.69399 -0.68035 1.18556 -1.18788 1.47471 c -0.49829 0.29294 -1.06295 0.41819 -1.69397 0.37575 l 0.61255 4.67647 l -1.80439 -0.73938" />
        <path id="path5063" style="line-height: 125%; letter-spacing: 0.56px; font-family: Source Sans Pro; font-size: 15px; font-weight: 600; fill: #ffffff; -inkscape-font-specification: Source Sans Pro Semi-Bold;" d="m -607.054 503.887 l -2.39913 -1.51043 l 0.78319 -1.24399 l 6.25804 3.93992 l -0.78319 1.24399 l -2.38643 -1.50244 l -4.44341 7.05774 l -1.47248 -0.92704 l 4.44341 -7.05775" />
        <path id="path5065" style="line-height: 125%; letter-spacing: 0.56px; font-family: Source Sans Pro; font-size: 15px; font-weight: 600; fill: #ffffff; -inkscape-font-specification: Source Sans Pro Semi-Bold;" d="m -599.729 507.244 l 1.33954 1.11051 l -6.261 7.55222 l -1.33954 -1.11051 l 6.261 -7.55222" />
        <path id="path5067" style="line-height: 125%; letter-spacing: 0.56px; font-family: Source Sans Pro; font-size: 15px; font-weight: 600; fill: #ffffff; -inkscape-font-specification: Source Sans Pro Semi-Bold;" d="m -595.235 511.177 l 4.05701 4.31814 l -1.07134 1.00655 l -2.86558 -3.05003 l -2.02242 1.90012 l 2.4342 2.59088 l -1.07133 1.00655 l -2.43421 -2.59089 l -2.98443 2.80396 l -1.19143 -1.26811 l 7.14953 -6.71717" />
        <path id="path5069" style="line-height: 125%; letter-spacing: 0.56px; font-family: Source Sans Pro; font-size: 15px; font-weight: 600; fill: #ffffff; -inkscape-font-specification: Source Sans Pro Semi-Bold;" d="m -589.101 518.242 l 1.02568 1.40555 l -7.92439 5.78274 l -1.02569 -1.40555 l 7.9244 -5.78274" />
        <path id="path5071" style="line-height: 125%; letter-spacing: 0.56px; font-family: Source Sans Pro; font-size: 15px; font-weight: 600; fill: #ffffff; -inkscape-font-specification: Source Sans Pro Semi-Bold;" d="m -585.686 523.178 l 2.84184 5.16478 l -1.28791 0.70865 l -2.00303 -3.64031 l -2.1947 1.2076 l 1.69932 3.08836 l -1.28791 0.70865 l -1.69932 -3.08835 l -2.53639 1.39561 l 2.07534 3.77173 l -1.28791 0.70866 l -2.91416 -5.2962 l 8.59483 -4.72918" />
        <path id="path5073" style="line-height: 125%; letter-spacing: 0.56px; font-family: Source Sans Pro; font-size: 15px; font-weight: 600; fill: #ffffff; -inkscape-font-specification: Source Sans Pro Semi-Bold;" d="m -581.041 532.369 l 0.83577 2.47257 c 0.48031 1.42101 0.47129 2.65909 -0.0271 3.71424 c -0.49518 1.06461 -1.51011 1.8563 -3.04479 2.37506 c -0.76736 0.25937 -1.47993 0.38412 -2.13773 0.37424 c -0.6546 -0.00041 -1.24649 -0.12758 -1.77566 -0.38149 c -0.5165 -0.24765 -0.96708 -0.61258 -1.35175 -1.09479 c -0.38467 -0.48222 -0.69388 -1.06911 -0.92764 -1.76066 l -0.86459 -2.55783 l 9.29345 -3.14134 m -7.16035 5.04872 c 0.32021 0.94734 0.83678 1.58553 1.54968 1.91458 c 0.72237 0.32583 1.65671 0.29502 2.803 -0.0924 c 1.1368 -0.38427 1.87767 -0.92498 2.2226 -1.62213 c 0.34811 -0.68769 0.36366 -1.50047 0.0466 -2.43834 l -0.24016 -0.7105 l -6.62193 2.23832 l 0.24016 0.71051" />
      </g>
      <path id="path3644" style="color: rgb(0, 0, 0); overflow: visible; display: inline; visibility: visible; fill: none; marker-end: none; marker-mid: none; marker-start: none; stroke: none; stroke-width: 1.05246; enable-background: accumulate;" transform="matrix(0.950525 0 0 0.94978 50.4608 397.787)" d="m -356.823 372.846 c 7.81696 -29.1733 37.8035 -46.486 66.9768 -38.669 c 29.1733 7.81696 46.486 37.8035 38.669 66.9768 c -7.81696 29.1733 -37.8035 46.486 -66.9768 38.669 C -342.062 433.417 -358.686 411.751 -358.686 387 L -304 387 Z" sodipodi:ry="54.686291" sodipodi:rx="54.686291" sodipodi:cy="387" sodipodi:cx="-304" sodipodi:type="arc" sodipodi:end="9.424778" sodipodi:start="3.403392" />
      <path id="path3646" style="color: rgb(0, 0, 0); overflow: visible; display: inline; visibility: visible; fill: none; marker-end: none; marker-mid: none; marker-start: none; stroke: #ffffff; stroke-dasharray: none; stroke-miterlimit: 4; stroke-opacity: 0.125628; stroke-width: 3.70526; enable-background: accumulate;" transform="matrix(1.07955 0 0 1.07955 89.6885 347.568)" d="m -238 387 c 0 36.4508 -29.5492 66 -66 66 c -36.4508 0 -66 -29.5492 -66 -66 c 0 -36.4508 29.5492 -66 66 -66 c 36.4508 0 66 29.5492 66 66 Z" sodipodi:ry="66" sodipodi:rx="66" sodipodi:cy="387" sodipodi:cx="-304" sodipodi:type="arc" />
      <path id="path3648" style="color: rgb(0, 0, 0); overflow: visible; display: inline; visibility: visible; fill: none; marker-end: none; marker-mid: none; marker-start: none; stroke: #ffffff; stroke-dasharray: none; stroke-miterlimit: 4; stroke-opacity: 1; stroke-width: 0.947935; enable-background: accumulate;" transform="matrix(1.05492 0 0 1.05492 82.2037 357.096)" d="m -238 387 c 0 36.4508 -29.5492 66 -66 66 c -36.4508 0 -66 -29.5492 -66 -66 c 0 -36.4508 29.5492 -66 66 -66 c 36.4508 0 66 29.5492 66 66 Z" sodipodi:ry="66" sodipodi:rx="66" sodipodi:cy="387" sodipodi:cx="-304" sodipodi:type="arc" />
      <path id="path3650" style="color: rgb(0, 0, 0); overflow: visible; display: inline; visibility: visible; fill: #000000; fill-opacity: 0.321608; fill-rule: nonzero; marker-end: none; marker-mid: none; marker-start: none; stroke: none; stroke-width: 1; enable-background: accumulate;" d="m -314.435 794.57 l 3.10283 32.9467 c 15.7098 -2.79503 38.7827 -6.58933 72.8216 -6.58933 c 34.0389 0 55.3601 3.02598 72.8216 6.58933 l 4.1371 -32.9467 c -17.6378 -3.67468 -42.9198 -6.58933 -76.9587 -6.58933 c -34.0388 0 -60.9341 3.38621 -75.9244 6.58933 Z" inkscape:connector-curvature="0" sodipodi:nodetypes="ccsccsc" />
      <path id="path3654" style="color: rgb(0, 0, 0); overflow: visible; display: inline; visibility: visible; fill: #ffffff; fill-opacity: 1; fill-rule: nonzero; marker-end: none; marker-mid: none; marker-start: none; stroke: none; stroke-width: 1; enable-background: accumulate;" d="m -311.902 790.153 l 3 33.3633 c 15.1891 -2.83038 37.4975 -6.67266 70.4083 -6.67266 c 32.9108 0 53.5255 3.06425 70.4083 6.67266 l 4 -33.3633 c -17.0532 -3.72115 -41.4975 -6.67266 -74.4083 -6.67266 c -32.9108 0 -58.9147 3.42903 -73.4083 6.67266 Z" inkscape:connector-curvature="0" sodipodi:nodetypes="ccsccsc" />
      <g id="text3656" style="font: 19.64px/125% Helvetica Neue; letter-spacing: 0px; word-spacing: 0px; -ms-writing-mode: lr-tb; font-stretch: normal; fill: #2e3436; fill-opacity: 1; stroke: none; text-anchor: start; -inkscape-font-specification: Helvetica Neue;" transform="matrix(1.06232 0 0 1.06232 439.735 171.96)">
        <path id="path5012" style="line-height: 125%; font-family: Source Sans Pro; font-size: 16.09px; font-weight: 600; fill: #2e3436; -inkscape-font-specification: Source Sans Pro Semi-Bold;" d="m -697.878 590.696 l 2.02332 -0.29213 l 2.62061 4.85854 l 0.97029 1.87661 l 0.0637 -0.009 l 0.39982 -2.07443 l 1.09145 -5.3945 l 2.03925 -0.29444 l 1.50437 10.4193 l -1.73655 0.25073 l -0.68778 -4.76355 c -0.0353 -0.24428 -0.0683 -0.51057 -0.0991 -0.79888 c -0.0202 -0.28983 -0.0403 -0.57966 -0.0605 -0.86951 c -0.0217 -0.30045 -0.0366 -0.59105 -0.0446 -0.87181 c -0.01 -0.29136 -0.0213 -0.56072 -0.0354 -0.80808 l -0.0637 0.009 l -0.50164 2.49573 l -1.11709 4.99161 l -0.84438 0.12191 l -2.48344 -4.47175 l -1.17118 -2.2542 l -0.0637 0.009 c 0.0565 0.24123 0.11609 0.50369 0.17874 0.78738 c 0.0717 0.27156 0.13969 0.55449 0.20387 0.84881 c 0.0626 0.28371 0.11998 0.56817 0.17201 0.8534 c 0.0626 0.28371 0.1116 0.5477 0.14687 0.79198 l 0.68778 4.76355 l -1.68875 0.24383 l -1.50437 -10.4193" />
        <path id="path5014" style="line-height: 125%; font-family: Source Sans Pro; font-size: 16.09px; font-weight: 600; fill: #2e3436; -inkscape-font-specification: Source Sans Pro Semi-Bold;" d="m -685.651 595.624 c -0.0754 -0.65025 -0.0415 -1.24295 0.10173 -1.7781 c 0.14321 -0.53515 0.36498 -0.99839 0.66531 -1.38972 c 0.31098 -0.39255 0.67983 -0.70539 1.10653 -0.93852 c 0.42546 -0.24378 0.88337 -0.3941 1.37372 -0.45096 c 0.49035 -0.0569 0.9705 -0.0153 1.44046 0.12467 c 0.47938 0.12808 0.91002 0.34823 1.29193 0.66044 c 0.38189 0.31223 0.70377 0.71244 0.96564 1.20062 c 0.27251 0.48696 0.44646 1.05555 0.52186 1.7058 c 0.0754 0.65025 0.0362 1.24356 -0.11771 1.77995 c -0.14322 0.53515 -0.36499 0.99839 -0.66531 1.38971 c -0.30034 0.39133 -0.66918 0.70417 -1.10653 0.93853 c -0.42671 0.23313 -0.88523 0.37811 -1.37558 0.43497 c -0.49035 0.0568 -0.96989 0.0206 -1.43861 -0.10868 c -0.46872 -0.12931 -0.89936 -0.34946 -1.29192 -0.66045 c -0.3819 -0.31222 -0.70378 -0.71242 -0.96564 -1.20061 c -0.26186 -0.48819 -0.43049 -1.0574 -0.50588 -1.70765 m 1.88678 -0.21876 c 0.0915 0.78882 0.3249 1.40454 0.70031 1.84715 c 0.38483 0.43072 0.86506 0.61271 1.44069 0.54597 c 0.57563 -0.0667 1.00148 -0.35378 1.27755 -0.86113 c 0.27484 -0.518 0.36652 -1.17142 0.27507 -1.96024 c -0.0927 -0.79948 -0.33146 -1.41458 -0.71629 -1.84531 c -0.38608 -0.44137 -0.86693 -0.62868 -1.44255 -0.56195 c -0.57563 0.0667 -1.00087 0.35912 -1.2757 0.87712 c -0.26541 0.50611 -0.35177 1.15891 -0.25908 1.95839" />
        <path id="path5016" style="line-height: 125%; font-family: Source Sans Pro; font-size: 16.09px; font-weight: 600; fill: #2e3436; -inkscape-font-specification: Source Sans Pro Semi-Bold;" d="m -676.943 587.175 l 1.84341 -0.16885 l 0.26722 2.91741 l 0.0723 1.31884 c 0.30485 -0.31887 0.64131 -0.58677 1.00939 -0.80368 c 0.37875 -0.21788 0.77117 -0.34542 1.17726 -0.38263 c 0.49158 -0.045 0.93853 0.011 1.34087 0.16814 c 0.40134 0.14644 0.75175 0.38375 1.05122 0.71193 c 0.29848 0.3175 0.5397 0.71567 0.72365 1.19452 c 0.18395 0.47886 0.30382 1.02285 0.35962 1.63197 c 0.0617 0.67325 0.0208 1.28585 -0.12263 1.83778 c -0.13371 0.54028 -0.33888 1.00628 -0.6155 1.39801 c -0.27663 0.39173 -0.60918 0.70236 -0.99764 0.93192 c -0.38847 0.22955 -0.80178 0.36439 -1.23992 0.40452 c -0.36334 0.0333 -0.73985 -0.0184 -1.12954 -0.15517 c -0.379 -0.1377 -0.74883 -0.35168 -1.10947 -0.64193 l -0.0481 0.004 l -0.0869 0.81617 l -1.4587 0.13361 l -1.03658 -11.317 m 2.69793 9.16044 c 0.30036 0.22034 0.58852 0.36636 0.8645 0.43807 c 0.28665 0.0707 0.54753 0.0953 0.78264 0.0738 c 0.52363 -0.048 0.94122 -0.31251 1.25277 -0.79365 c 0.31055 -0.49181 0.42473 -1.18655 0.34251 -2.08422 c -0.0724 -0.79079 -0.2623 -1.39303 -0.56959 -1.80671 c -0.3073 -0.41367 -0.76017 -0.5931 -1.3586 -0.53829 c -0.5557 0.0509 -1.10585 0.39764 -1.65046 1.0402 l 0.33623 3.67081" />
        <path id="path5018" style="line-height: 125%; font-family: Source Sans Pro; font-size: 16.09px; font-weight: 600; fill: #2e3436; -inkscape-font-specification: Source Sans Pro Semi-Bold;" d="m -666.605 588.374 c -0.33177 0.0244 -0.61176 -0.0518 -0.83999 -0.2287 c -0.22822 -0.17687 -0.35376 -0.4205 -0.3766 -0.73087 c -0.0229 -0.31036 0.0657 -0.56974 0.26552 -0.77815 c 0.19908 -0.21908 0.4645 -0.34084 0.79627 -0.36527 c 0.33177 -0.0244 0.61216 0.0572 0.84118 0.24474 c 0.22822 0.1769 0.35376 0.42053 0.3766 0.73088 c 0.0229 0.31037 -0.0657 0.56976 -0.26553 0.77814 c -0.19986 0.20841 -0.46568 0.32482 -0.79745 0.34923 m -0.82947 1.44912 l 1.84614 -0.13589 l 0.5802 7.8822 l -1.84614 0.1359 l -0.5802 -7.88221" />
        <path id="path5020" style="line-height: 125%; font-family: Source Sans Pro; font-size: 16.09px; font-weight: 600; fill: #2e3436; -inkscape-font-specification: Source Sans Pro Semi-Bold;" d="m -663.355 586.067 l 1.84758 -0.11461 l 0.584 9.41463 c 0.014 0.22492 0.0668 0.38292 0.15843 0.474 c 0.091 0.0804 0.18469 0.11757 0.28109 0.11159 c 0.0428 -0.003 0.0803 -0.005 0.11246 -0.007 c 0.0428 -0.003 0.10109 -0.017 0.17474 -0.0431 l 0.32669 1.36672 c -0.2397 0.12238 -0.56305 0.1962 -0.97005 0.22145 c -0.66406 0.0412 -1.14227 -0.12805 -1.43461 -0.50774 c -0.29235 -0.37968 -0.45979 -0.91226 -0.50231 -1.59774 l -0.57802 -9.31823" />
        <path id="path5022" style="line-height: 125%; font-family: Source Sans Pro; font-size: 16.09px; font-weight: 600; fill: #2e3436; -inkscape-font-specification: Source Sans Pro Semi-Bold;" d="m -658.982 593.226 c -0.029 -0.64321 0.0467 -1.22671 0.22713 -1.75048 c 0.18045 -0.52376 0.42885 -0.97003 0.74521 -1.33881 c 0.32708 -0.36925 0.70603 -0.66028 1.13685 -0.8731 c 0.43082 -0.2128 0.87671 -0.32961 1.33769 -0.35043 c 0.53601 -0.0242 1.01181 0.0456 1.42742 0.20949 c 0.41559 0.16386 0.76489 0.4059 1.04791 0.72612 c 0.29372 0.31975 0.52068 0.70696 0.68086 1.16164 c 0.16016 0.45468 0.25259 0.95539 0.27728 1.50212 c 0.0164 0.36449 0.003 0.65515 -0.0412 0.87197 l -5.01709 0.2265 c 0.11819 0.71439 0.38968 1.25536 0.81447 1.62289 c 0.43552 0.36706 0.97488 0.53607 1.6181 0.50703 c 0.34305 -0.0155 0.65712 -0.078 0.94221 -0.18756 c 0.29532 -0.12075 0.5836 -0.27878 0.86482 -0.4741 l 0.67941 1.12948 c -0.36408 0.26351 -0.77298 0.48607 -1.22669 0.66768 c -0.45371 0.18162 -0.9325 0.2838 -1.43634 0.30654 c -0.54674 0.0247 -1.06007 -0.0435 -1.53999 -0.2044 c -0.4804 -0.17167 -0.90547 -0.4264 -1.27521 -0.7642 c -0.36974 -0.3378 -0.66783 -0.75402 -0.89426 -1.24868 c -0.2162 -0.50586 -0.33906 -1.08576 -0.36858 -1.7397 m 5.25852 -0.94638 c -0.0286 -0.63249 -0.18483 -1.11958 -0.4688 -1.46125 c -0.27326 -0.34215 -0.68326 -0.50088 -1.22999 -0.47621 c -0.4717 0.0213 -0.87668 0.21146 -1.21496 0.57047 c -0.33877 0.34831 -0.53603 0.85672 -0.59178 1.52525 l 3.50553 -0.15826" />
        <path id="path5024" style="line-height: 125%; font-family: Source Sans Pro; font-size: 16.09px; font-weight: 600; fill: #2e3436; -inkscape-font-specification: Source Sans Pro Semi-Bold;" d="m -646.803 586.175 l 2.80065 -0.0331 c 1.60956 -0.019 2.87017 0.40069 3.78182 1.25919 c 0.92236 0.85838 1.39383 2.15673 1.41441 3.89506 c 0.0103 0.86917 -0.0987 1.63779 -0.32687 2.30587 c -0.21748 0.66795 -0.54352 1.22987 -0.97813 1.68575 c -0.42402 0.44503 -0.94587 0.7839 -1.56556 1.0166 c -0.61971 0.2327 -1.32122 0.35369 -2.10454 0.36296 l -2.89722 0.0343 l -0.12456 -10.5266 m 2.77854 8.98196 c 1.07304 -0.0127 1.89566 -0.32829 2.46788 -0.94678 c 0.57207 -0.62922 0.85043 -1.59302 0.83507 -2.89141 c -0.0152 -1.28765 -0.32144 -2.22307 -0.91859 -2.80627 c -0.58643 -0.58331 -1.4108 -0.86868 -2.47311 -0.85612 l -0.80479 0.01 l 0.0888 7.50059 l 0.80478 -0.01" />
        <path id="path5026" style="line-height: 125%; font-family: Source Sans Pro; font-size: 16.09px; font-weight: 600; fill: #2e3436; -inkscape-font-specification: Source Sans Pro Semi-Bold;" d="m -637.26 592.675 c 0.008 -0.64381 0.11733 -1.22197 0.32769 -1.73446 c 0.21036 -0.51249 0.48409 -0.94369 0.82119 -1.29361 c 0.34783 -0.34977 0.74293 -0.61846 1.18531 -0.80608 c 0.44237 -0.1876 0.89426 -0.2785 1.35567 -0.2727 c 0.53652 0.007 1.0075 0.10392 1.41296 0.29146 c 0.40545 0.18755 0.74022 0.44934 1.0043 0.78535 c 0.27479 0.33616 0.47903 0.73581 0.61273 1.19897 c 0.13367 0.46317 0.19707 0.96837 0.19019 1.51561 c -0.005 0.36484 -0.0351 0.65422 -0.0914 0.86815 l -5.0218 -0.0632 c 0.0768 0.72001 0.31663 1.27573 0.71952 1.66716 c 0.41362 0.39156 0.94234 0.59139 1.58616 0.5995 c 0.34337 0.004 0.66052 -0.04 0.95146 -0.13291 c 0.3018 -0.10352 0.5987 -0.24466 0.89073 -0.42343 l 0.61313 1.16678 c -0.37867 0.24207 -0.79972 0.44068 -1.26315 0.59582 c -0.46343 0.15515 -0.94731 0.22955 -1.45163 0.2232 c -0.54726 -0.007 -1.0558 -0.10452 -1.52563 -0.29288 c -0.46971 -0.19909 -0.87938 -0.47791 -1.22903 -0.83647 c -0.34964 -0.35856 -0.62323 -0.79128 -0.82075 -1.29818 c -0.18667 -0.51748 -0.27588 -1.1035 -0.26763 -1.75806 m 5.30434 -0.64154 c 0.008 -0.63308 -0.11995 -1.12836 -0.38375 -1.48585 c -0.25307 -0.35734 -0.65323 -0.53945 -1.20047 -0.54635 c -0.47214 -0.006 -0.88742 0.16055 -1.24584 0.49946 c -0.3583 0.32818 -0.58455 0.82438 -0.67877 1.48857 l 3.50883 0.0442" />
        <path id="path5028" style="line-height: 125%; font-family: Source Sans Pro; font-size: 16.09px; font-weight: 600; fill: #2e3436; -inkscape-font-specification: Source Sans Pro Semi-Bold;" d="m -629.333 588.822 l 1.88223 0.0642 l 1.11487 4.1451 c 0.0941 0.38976 0.18797 0.78488 0.28169 1.18536 c 0.10443 0.40085 0.20332 0.80688 0.29667 1.21808 l 0.0643 0.002 c 0.13188 -0.40352 0.25821 -0.80187 0.379 -1.19503 c 0.12078 -0.39317 0.24675 -0.78079 0.3779 -1.16286 l 1.39477 -4.05949 l 1.7857 0.0609 l -2.95607 7.80728 l -2.13963 -0.073 l -2.48148 -7.99278" />
        <path id="path5030" style="line-height: 125%; font-family: Source Sans Pro; font-size: 16.09px; font-weight: 600; fill: #2e3436; -inkscape-font-specification: Source Sans Pro Semi-Bold;" d="m -621.062 593.08 c 0.0358 -0.64287 0.16979 -1.21579 0.402 -1.71877 c 0.23222 -0.50296 0.52424 -0.92198 0.87608 -1.25708 c 0.36255 -0.33448 0.76885 -0.58593 1.21889 -0.75434 c 0.45003 -0.1684 0.90541 -0.23977 1.36615 -0.21413 c 0.53572 0.0298 1.00209 0.14716 1.39911 0.35197 c 0.39701 0.20482 0.7202 0.48076 0.96958 0.82782 c 0.26008 0.34767 0.44694 0.75575 0.56059 1.22422 c 0.11363 0.46849 0.15523 0.97596 0.12482 1.5224 c -0.0203 0.3643 -0.0632 0.6521 -0.12869 0.86341 l -5.01443 -0.27919 c 0.0457 0.72265 0.26146 1.28817 0.64714 1.69657 c 0.39639 0.40899 0.91602 0.63138 1.5589 0.66717 c 0.34287 0.0191 0.66163 -0.0115 0.9563 -0.0919 c 0.30597 -0.0904 0.60867 -0.21868 0.90812 -0.38472 l 0.56237 1.19207 c -0.38874 0.22556 -0.81794 0.40587 -1.28761 0.54094 c -0.46968 0.13506 -0.95631 0.18858 -1.4599 0.16054 c -0.54644 -0.0304 -1.05032 -0.14984 -1.51161 -0.35823 c -0.46071 -0.21911 -0.85801 -0.5153 -1.1919 -0.88857 c -0.3339 -0.37327 -0.58862 -0.81736 -0.76416 -1.33229 c -0.16423 -0.52503 -0.22814 -1.11435 -0.19175 -1.76794 m 5.32703 -0.41276 c 0.0352 -0.63216 -0.0713 -1.13249 -0.31948 -1.50099 c -0.23747 -0.36789 -0.62942 -0.56706 -1.17586 -0.59749 c -0.47145 -0.0262 -0.8935 0.12223 -1.26617 0.4454 c -0.37208 0.31247 -0.61947 0.79847 -0.74217 1.458 l 3.50368 0.19508" />
        <path id="path5032" style="line-height: 125%; font-family: Source Sans Pro; font-size: 16.09px; font-weight: 600; fill: #2e3436; -inkscape-font-specification: Source Sans Pro Semi-Bold;" d="m -611.784 586.202 l 1.84627 0.13402 l -0.6829 9.40797 c -0.0163 0.22476 0.0148 0.38842 0.0935 0.49096 c 0.0794 0.0918 0.16728 0.14125 0.26361 0.14824 c 0.0428 0.003 0.0803 0.006 0.11238 0.008 c 0.0428 0.003 0.10245 -0.003 0.17893 -0.0193 l 0.1406 1.39817 c -0.25394 0.0892 -0.58427 0.11899 -0.99098 0.0895 c -0.66359 -0.0482 -1.1148 -0.27997 -1.35363 -0.6954 c -0.23883 -0.41544 -0.33339 -0.96565 -0.28366 -1.65065 l 0.67591 -9.31164" />
        <path id="path5034" style="line-height: 125%; font-family: Source Sans Pro; font-size: 16.09px; font-weight: 600; fill: #2e3436; -inkscape-font-specification: Source Sans Pro Semi-Bold;" d="m -608.406 593.88 c 0.059 -0.65194 0.21318 -1.22523 0.46264 -1.71987 c 0.24946 -0.49463 0.56114 -0.90283 0.93504 -1.2246 c 0.38459 -0.32078 0.80954 -0.55172 1.27485 -0.69282 c 0.46627 -0.15177 0.94523 -0.20543 1.43686 -0.16097 c 0.49162 0.0445 0.95318 0.18319 1.38466 0.41615 c 0.44313 0.22326 0.81975 0.5267 1.12986 0.91032 c 0.3101 0.38362 0.54348 0.84112 0.70016 1.37248 c 0.16734 0.53234 0.22154 1.12448 0.16258 1.77642 c -0.059 0.65194 -0.21853 1.22475 -0.47867 1.71842 c -0.24947 0.49464 -0.56115 0.90284 -0.93504 1.2246 c -0.37391 0.32175 -0.79886 0.5527 -1.27485 0.69282 c -0.46531 0.14109 -0.94378 0.1894 -1.43541 0.14494 c -0.49163 -0.0445 -0.95367 -0.17784 -1.38611 -0.40013 c -0.43245 -0.22228 -0.80907 -0.52572 -1.12986 -0.91031 c -0.3101 -0.38362 -0.54349 -0.84111 -0.70015 -1.37248 c -0.15667 -0.53137 -0.20552 -1.12303 -0.14656 -1.77497 m 1.8917 0.17109 c -0.0715 0.79088 0.0313 1.44129 0.30841 1.95123 c 0.28878 0.50022 0.72173 0.77643 1.29887 0.82862 c 0.57712 0.0522 1.05261 -0.14185 1.42646 -0.58213 c 0.3748 -0.45098 0.59797 -1.07191 0.66951 -1.86279 c 0.0725 -0.80156 -0.0357 -1.45246 -0.32443 -1.95268 c -0.28783 -0.5109 -0.7203 -0.79245 -1.29742 -0.84465 c -0.57714 -0.0522 -1.05311 0.14719 -1.42791 0.59816 c -0.36317 0.44126 -0.58099 1.06268 -0.65349 1.86424" />
        <path id="path5036" style="line-height: 125%; font-family: Source Sans Pro; font-size: 16.09px; font-weight: 600; fill: #2e3436; -inkscape-font-specification: Source Sans Pro Semi-Bold;" d="m -597.687 599.527 l -0.28268 2.46274 l -1.83906 -0.21109 l 1.25739 -10.9544 l 1.51922 0.17438 l 0.0325 0.84626 l 0.064 0.007 c 0.36231 -0.23925 0.75766 -0.43691 1.18604 -0.59297 c 0.42837 -0.15606 0.86111 -0.209 1.29823 -0.15884 c 0.49041 0.0563 0.91117 0.20182 1.26229 0.43654 c 0.363 0.2253 0.65757 0.52916 0.88372 0.91156 c 0.22614 0.38242 0.38037 0.82679 0.46268 1.33311 c 0.0823 0.50633 0.0886 1.06333 0.0188 1.67102 c -0.0771 0.67165 -0.24219 1.263 -0.49527 1.77403 c -0.24121 0.50159 -0.53721 0.91589 -0.88798 1.24288 c -0.34957 0.31633 -0.73792 0.54719 -1.16507 0.69259 c -0.42715 0.1454 -0.85929 0.19302 -1.29639 0.14284 c -0.34116 -0.0392 -0.67375 -0.15294 -0.99778 -0.34136 c -0.32402 -0.18842 -0.63005 -0.43958 -0.91806 -0.75348 l -0.10255 1.31683 m 0.30104 -2.62265 c 0.25971 0.27825 0.51732 0.48065 0.77284 0.60719 c 0.25551 0.12654 0.50054 0.20328 0.73509 0.2302 c 0.52239 0.06 0.9852 -0.11375 1.38842 -0.52114 c 0.40444 -0.41804 0.65805 -1.07484 0.76085 -1.97038 c 0.0906 -0.78892 0.0276 -1.41724 -0.1887 -1.88495 c -0.21636 -0.46769 -0.62305 -0.73581 -1.22007 -0.80434 c -0.55439 -0.0636 -1.16375 0.16347 -1.82807 0.6813 l -0.42036 3.66212" />
        <path id="path5038" style="line-height: 125%; font-family: Source Sans Pro; font-size: 16.09px; font-weight: 600; fill: #2e3436; -inkscape-font-specification: Source Sans Pro Semi-Bold;" d="m -590.399 595.768 c 0.0883 -0.63779 0.26867 -1.19783 0.54125 -1.68012 c 0.27257 -0.48228 0.59789 -0.87602 0.97596 -1.18121 c 0.3887 -0.30371 0.8142 -0.52108 1.27651 -0.65212 c 0.46229 -0.13102 0.92199 -0.16491 1.37908 -0.10167 c 0.53149 0.0736 0.9867 0.22863 1.36564 0.46523 c 0.37892 0.23661 0.67846 0.53806 0.89862 0.90436 c 0.23077 0.36778 0.38362 0.78977 0.45857 1.26597 c 0.0749 0.47621 0.0749 0.98538 -0.00012 1.5275 c -0.05 0.36142 -0.11631 0.64475 -0.19887 0.84999 l -4.9748 -0.68841 c -0.0135 0.72398 0.15522 1.30525 0.5062 1.74382 c 0.36161 0.44005 0.86131 0.7042 1.49911 0.79245 c 0.34015 0.0471 0.66035 0.0426 0.96061 -0.0133 c 0.31234 -0.0651 0.62452 -0.16817 0.93654 -0.30916 l 0.46298 1.23408 c -0.40588 0.193 -0.8484 0.33761 -1.32754 0.4338 c -0.47916 0.0962 -0.96853 0.10973 -1.46813 0.0406 c -0.54213 -0.075 -1.03455 -0.23525 -1.47726 -0.48068 c -0.44124 -0.25606 -0.81298 -0.58375 -1.11522 -0.98308 c -0.30225 -0.39933 -0.51979 -0.86277 -0.65262 -1.39032 c -0.12074 -0.53671 -0.13624 -1.12928 -0.0465 -1.77771 m 5.34294 0.0243 c 0.0868 -0.62716 0.0216 -1.13452 -0.19563 -1.52208 c -0.20658 -0.38609 -0.58093 -0.61664 -1.12305 -0.69167 c -0.46772 -0.0647 -0.9005 0.0487 -1.29836 0.34034 c -0.39639 0.28099 -0.6827 0.74513 -0.85894 1.39241 l 3.47598 0.481" />
        <path id="path5040" style="line-height: 125%; font-family: Source Sans Pro; font-size: 16.09px; font-weight: 600; fill: #2e3436; -inkscape-font-specification: Source Sans Pro Semi-Bold;" d="m -581.104 593.091 l 1.51048 0.2385 l -0.0912 1.40337 l 0.0636 0.01 c 0.35592 -0.46527 0.75091 -0.79945 1.18495 -1.00253 c 0.4357 -0.21366 0.86026 -0.28786 1.27366 -0.2226 c 0.37099 0.0586 0.65942 0.15845 0.86528 0.29959 l -0.56904 1.53977 c -0.13111 -0.0641 -0.25329 -0.11604 -0.36653 -0.15565 c -0.11326 -0.0396 -0.25468 -0.0728 -0.42428 -0.0996 c -0.3074 -0.0485 -0.64994 0.0223 -1.02763 0.21255 c -0.37602 0.17965 -0.73279 0.54702 -1.0703 1.10212 l -0.75314 4.76994 l -1.82848 -0.2887 l 1.23264 -7.80682" />
      </g>
      <path id="path3660" style="color: rgb(0, 0, 0); overflow: visible; display: inline; visibility: visible; fill: none; marker-end: none; marker-mid: none; marker-start: none; stroke: none; stroke-width: 0.19282; enable-background: accumulate;" transform="matrix(5.33545 0 0 5.04108 1383.4 -811.555)" d="m -315.077 321.936 c 7.30673 -1.24392 14.7708 -1.24817 22.0789 -0.0126" sodipodi:ry="66" sodipodi:rx="66" sodipodi:cy="387" sodipodi:cx="-304" sodipodi:type="arc" sodipodi:end="4.8798731" sodipodi:start="4.5437638" sodipodi:open="true" />
    </g>
  </g>
</svg>